<svg xmlns="http://www.w3.org/2000/svg" height="937pt" version="1.1" viewBox="-148 0 937 937.5" width="937pt">
<g id="surface1">
<path d="M 140.875 468.75 C 97.75 468.804688 62.804688 503.75 62.75 546.875 C 62.796875 563.828125 68.414062 580.296875 78.734375 593.75 C 54.214844 625.917969 58.304688 671.476562 88.148438 698.757812 C 118.015625 726.046875 163.734375 726.046875 193.601562 698.757812 C 223.445312 671.476562 227.535156 625.917969 203.015625 593.75 C 213.335938 580.296875 218.953125 563.828125 219 546.875 C 218.945312 503.75 184 468.804688 140.875 468.75 Z M 140.875 500 C 160.359375 499.914062 177.859375 511.953125 184.746094 530.175781 C 191.632812 548.40625 186.480469 569 171.8125 581.828125 C 171.726562 581.828125 171.609375 581.828125 171.53125 581.984375 C 165.921875 586.890625 159.238281 590.40625 152.011719 592.261719 C 151.5625 592.378906 151.140625 592.578125 150.6875 592.675781 C 144.226562 594.109375 137.523438 594.109375 131.0625 592.675781 C 130.609375 592.578125 130.1875 592.378906 129.738281 592.261719 C 122.515625 590.40625 115.835938 586.890625 110.21875 581.984375 C 110.21875 581.910156 110.023438 581.894531 109.9375 581.828125 C 95.269531 569 90.117188 548.40625 97.003906 530.175781 C 103.890625 511.953125 121.390625 499.914062 140.875 500 Z M 140.875 687.5 C 114.992188 687.5 94 666.507812 94 640.625 C 93.976562 631.289062 96.820312 622.164062 102.15625 614.5 C 103.226562 615.113281 104.359375 615.546875 105.449219 616.0625 C 109.019531 617.914062 112.730469 619.476562 116.546875 620.75 C 118.289062 621.3125 119.984375 621.921875 121.734375 622.3125 C 124.269531 622.953125 126.84375 623.417969 129.453125 623.875 C 131.015625 624.109375 132.578125 624.21875 134.136719 624.339844 C 136.386719 624.550781 138.5625 625.03125 140.867188 625.03125 C 143.160156 625.03125 145.328125 624.550781 147.585938 624.339844 C 149.136719 624.21875 150.699219 624.109375 152.261719 623.875 C 154.878906 623.480469 157.453125 623.015625 159.984375 622.3125 C 161.734375 621.875 163.433594 621.269531 165.171875 620.75 C 168.992188 619.476562 172.703125 617.914062 176.269531 616.0625 C 177.359375 615.503906 178.484375 615.058594 179.566406 614.5 C 184.914062 622.164062 187.757812 631.28125 187.75 640.625 C 187.75 666.507812 166.757812 687.5 140.875 687.5 Z M 140.875 687.5 " style=" stroke:none;fill-rule:nonzero;fill:rgb(0%,0%,0%);fill-opacity:1;" />
<path d="M 322.125 218.75 L 397.125 218.75 C 419.5625 218.75 437.75 200.5625 437.75 178.125 L 437.75 103.125 C 437.75 80.6875 419.5625 62.5 397.125 62.5 L 322.125 62.5 C 299.6875 62.5 281.5 80.6875 281.5 103.125 L 281.5 178.125 C 281.5 200.5625 299.6875 218.75 322.125 218.75 Z M 312.75 103.125 C 312.75 97.949219 316.949219 93.75 322.125 93.75 L 344 93.75 L 344 125 L 375.25 125 L 375.25 93.75 L 397.125 93.75 C 402.300781 93.75 406.5 97.949219 406.5 103.125 L 406.5 178.125 C 406.5 183.300781 402.300781 187.5 397.125 187.5 L 375.25 187.5 L 375.25 156.25 L 344 156.25 L 344 187.5 L 322.125 187.5 C 316.949219 187.5 312.75 183.300781 312.75 178.125 Z M 312.75 103.125 " style=" stroke:none;fill-rule:nonzero;fill:rgb(0%,0%,0%);fill-opacity:1;" />
<path d="M 203.375 78.125 L 234.625 78.125 L 234.625 140.625 L 203.375 140.625 Z M 203.375 78.125 " style=" stroke:none;fill-rule:nonzero;fill:rgb(0%,0%,0%);fill-opacity:1;" />
<path d="M 109.625 78.125 L 140.875 78.125 L 140.875 140.625 L 109.625 140.625 Z M 109.625 78.125 " style=" stroke:none;fill-rule:nonzero;fill:rgb(0%,0%,0%);fill-opacity:1;" />
<path d="M 109.625 359.375 L 140.875 359.375 L 140.875 421.875 L 109.625 421.875 Z M 109.625 359.375 " style=" stroke:none;fill-rule:nonzero;fill:rgb(0%,0%,0%);fill-opacity:1;" />
<path d="M 203.375 171.875 L 234.625 171.875 L 234.625 234.375 L 203.375 234.375 Z M 203.375 171.875 " style=" stroke:none;fill-rule:nonzero;fill:rgb(0%,0%,0%);fill-opacity:1;" />
<path d="M 203.375 265.625 L 234.625 265.625 L 234.625 328.125 L 203.375 328.125 Z M 203.375 265.625 " style=" stroke:none;fill-rule:nonzero;fill:rgb(0%,0%,0%);fill-opacity:1;" />
<path d="M 203.375 359.375 L 234.625 359.375 L 234.625 421.875 L 203.375 421.875 Z M 203.375 359.375 " style=" stroke:none;fill-rule:nonzero;fill:rgb(0%,0%,0%);fill-opacity:1;" />
<path d="M 640.875 921.875 L 640.875 563.183594 C 640.878906 521.554688 625.765625 481.328125 598.355469 450 L 500.25 337.882812 L 500.25 78.125 C 500.195312 35 465.25 0.0546875 422.125 0 L 78.375 0 C 35.25 0.0546875 0.304688 35 0.25 78.125 L 0.25 703.125 C 0.304688 746.25 35.25 781.195312 78.375 781.25 L 394.660156 781.25 C 396.519531 798.144531 400.492188 814.734375 406.5 830.640625 L 406.5 921.875 C 406.5 930.507812 413.492188 937.5 422.125 937.5 L 625.25 937.5 C 633.882812 937.5 640.875 930.507812 640.875 921.875 Z M 574.828125 470.59375 C 597.261719 496.21875 609.625 529.125 609.625 563.183594 L 609.625 812.5 L 433.296875 812.5 C 418.941406 769.414062 422.242188 722.386719 442.484375 681.734375 L 451.734375 663.234375 C 454.742188 657.222656 453.550781 649.957031 448.796875 645.203125 L 315.984375 512.390625 C 300.519531 496.914062 300.519531 471.835938 315.984375 456.359375 C 331.671875 441.414062 356.328125 441.414062 372.015625 456.359375 L 536.078125 620.421875 L 558.171875 598.328125 L 500.25 540.40625 L 500.25 385.347656 Z M 31.5 703.125 L 31.5 78.125 C 31.5 52.242188 52.492188 31.25 78.375 31.25 L 422.125 31.25 C 448.007812 31.25 469 52.242188 469 78.125 L 469 509.15625 L 394.109375 434.265625 C 366.4375 406.59375 321.5625 406.59375 293.890625 434.265625 C 266.21875 461.9375 266.21875 506.8125 293.890625 534.484375 L 418.734375 659.328125 L 414.53125 667.75 C 401.734375 693.359375 394.488281 721.386719 393.292969 750 L 78.375 750 C 52.492188 750 31.5 729.007812 31.5 703.125 Z M 609.625 906.25 L 437.75 906.25 L 437.75 843.75 L 609.625 843.75 Z M 609.625 906.25 " style=" stroke:none;fill-rule:nonzero;fill:rgb(0%,0%,0%);fill-opacity:1;" />
</g>
</svg>