<?xml version="1.0" encoding="utf-8"?>
<svg version="1.1" id="Слой_1" xmlns="http://www.w3.org/2000/svg" xmlns:xlink="http://www.w3.org/1999/xlink" x="0px" y="0px"
     width="410px" height="512px" viewBox="-52 0 410 512" style="enable-background:new -52 0 410 512;" xml:space="preserve">
<path d="m407 203.5c0-9.710938-3.101562-18.921875-8.964844-26.632812-5.046875-6.664063-6.730468-15.121094-4.617187-23.195313 2.46875-9.378906 1.808593-19.078125-1.910157-28.046875-3.714843-8.96875-10.105468-16.296875-18.472656-21.175781-7.214844-4.222657-12.003906-11.394531-13.144531-19.664063-1.308594-9.609375-5.628906-18.316406-12.496094-25.179687-6.863281-6.867188-15.570312-11.1875-25.167969-12.496094-8.28125-1.140625-15.453124-5.933594-19.671874-13.136719-4.886719-8.375-12.210938-14.769531-21.179688-18.480468-5.382812-2.230469-11.050781-3.363282-16.839844-3.363282-3.773437 0-7.542968.488282-11.195312 1.449219-2.234375.585937-4.542969.882813-6.851563.882813-5.871093 0-11.679687-1.953126-16.347656-5.492188-7.71875-5.867188-16.929687-8.96875-26.640625-8.96875s-18.921875 3.101562-26.632812 8.964844c-4.675782 3.542968-10.484376 5.496094-16.355469 5.496094-2.3125 0-4.613281-.296876-6.839844-.878907-3.664063-.964843-7.4375-1.453125-11.210937-1.453125-5.789063 0-11.453126 1.132813-16.835938 3.363282-8.972656 3.714843-16.296875 10.105468-21.175781 18.472656-4.222657 7.210937-11.394531 12.003906-19.664063 13.144531-9.609375 1.308594-18.316406 5.628906-25.179687 12.496094-6.867188 6.863281-11.1875 15.570312-12.496094 25.167969-1.140625 8.28125-5.933594 15.453124-13.136719 19.667968-8.375 4.886719-14.765625 12.210938-18.480468 21.183594-3.714844 8.96875-4.375 18.667969-1.914063 28.035156 2.117187 8.085938.433594 16.546875-4.609375 23.199219-5.867188 7.71875-8.96875 16.933594-8.96875 26.640625 0 9.710938 3.101562 18.921875 8.964844 26.632812 5.046875 6.664063 6.730468 15.121094 4.617187 23.199219-2.46875 9.378907-1.808593 19.074219 1.90625 28.046875 3.71875 8.96875 10.109375 16.292969 18.476563 21.175782 7.210937 4.222656 12.003906 11.390624 13.144531 19.664062 1.308594 9.605469 5.628906 18.3125 12.496094 25.179688 6.863281 6.867187 15.574219 11.1875 25.167969 12.492187 8.28125 1.140625 15.453124 5.933594 19.667968 13.136719 4.886719 8.378906 12.210938 14.769531 21.179688 18.484375 3.363281 1.390625 6.835937 2.355469 10.378906 2.882812v110.105469c0 2.839844 1.605469 5.4375 4.144531 6.707031 2.542969 1.273438 5.582031.996094 7.855469-.707031l55.5-41.625 55.5 41.625c1.320312.992188 2.90625 1.5 4.5 1.5 1.144531 0 2.292969-.261719 3.351562-.792969 2.542969-1.269531 4.148438-3.867187 4.148438-6.707031v-110.105469c3.542969-.53125 7.011719-1.492187 10.375-2.882812 8.96875-3.71875 16.292969-10.109375 21.175781-18.476563 4.222657-7.210937 11.394531-12.003906 19.664063-13.144531 9.609375-1.308594 18.316406-5.628906 25.179687-12.496094 6.867188-6.863281 11.1875-15.570312 12.496094-25.167969 1.140625-8.28125 5.933594-15.453124 13.136719-19.671874 8.375-4.886719 14.765625-12.210938 18.480468-21.179688 3.714844-8.972656 4.375-18.667969 1.914063-28.035156-2.117187-8.085938-.433594-16.546875 4.609375-23.199219 5.867188-7.71875 8.96875-16.929687 8.96875-26.640625zm-199 250c-2.667969-2-6.332031-2-9 0l-48 36v-95.46875c.890625-.175781 1.78125-.378906 2.660156-.609375 2.234375-.585937 4.542969-.882813 6.851563-.882813 5.871093 0 11.679687 1.953126 16.347656 5.492188 7.71875 5.867188 16.929687 8.96875 26.640625 8.96875s18.921875-3.101562 26.632812-8.964844c4.679688-3.542968 10.488282-5.496094 16.355469-5.496094 2.3125 0 4.617188.296876 6.839844.878907.886719.234375 1.777344.433593 2.671875.613281v95.46875zm178.082031-232.429688c-7.84375 10.355469-10.460937 23.5-7.171875 36.074219 1.628906 6.183594 1.191406 12.574219-1.257812 18.492188-2.449219 5.914062-6.664063 10.742187-12.191406 13.96875-11.210938 6.5625-18.65625 17.707031-20.429688 30.585937-.863281 6.328125-3.710938 12.070313-8.242188 16.597656-4.523437 4.527344-10.265624 7.375-16.609374 8.242188-12.867188 1.773438-24.011719 9.21875-30.578126 20.4375-3.21875 5.519531-8.046874 9.730469-13.964843 12.183594-3.554688 1.472656-7.289063 2.21875-11.097657 2.21875-2.488281 0-4.976562-.320313-7.402343-.960938-3.476563-.910156-7.058594-1.371094-10.644531-1.371094-9.121094 0-18.148438 3.035157-25.425782 8.550782-5.089844 3.867187-11.164062 5.910156-17.566406 5.910156s-12.476562-2.042969-17.574219-5.917969c-7.269531-5.507812-16.292969-8.542969-25.414062-8.542969-3.589844 0-7.171875.460938-10.660157 1.371094-6.121093 1.609375-12.613281 1.175782-18.488281-1.261718-5.914062-2.449219-10.746093-6.660157-13.96875-12.1875-6.5625-11.210938-17.707031-18.65625-30.585937-20.433594-6.332032-.859375-12.070313-3.710938-16.597656-8.238282-4.527344-4.527343-7.375-10.265624-8.242188-16.609374-1.773438-12.867188-9.21875-24.011719-20.4375-30.578126-5.519531-3.21875-9.730469-8.050781-12.183594-13.964843-2.449218-5.914063-2.886718-12.308594-1.257812-18.5 3.289062-12.566407.671875-25.710938-7.179688-36.074219-3.867187-5.085938-5.910156-11.160156-5.910156-17.5625s2.042969-12.476562 5.917969-17.570312c7.84375-10.355469 10.460937-23.496094 7.171875-36.074219-1.625-6.179688-1.191406-12.574219 1.257812-18.488281 2.453125-5.917969 6.664063-10.746094 12.191406-13.972657 11.210938-6.5625 18.65625-17.703125 20.433594-30.582031.863282-6.332031 3.710938-12.074219 8.238282-16.601562 4.527343-4.527344 10.269531-7.375 16.609374-8.242188 12.867188-1.769531 24.011719-9.21875 30.578126-20.4375 3.222656-5.519531 8.050781-9.730469 13.964843-12.183594 5.875-2.433594 12.355469-2.875 18.5-1.257812 3.476563.910156 7.058594 1.371094 10.648438 1.371094 9.121093 0 18.148437-3.035157 25.425781-8.550782 5.085938-3.867187 11.160156-5.910156 17.5625-5.910156s12.476562 2.042969 17.574219 5.917969c7.269531 5.507812 16.292969 8.542969 25.414062 8.542969 3.589844 0 7.171875-.460938 10.660157-1.371094 6.117187-1.609375 12.613281-1.175782 18.488281 1.261718 5.914062 2.449219 10.746093 6.660157 13.96875 12.1875 6.5625 11.210938 17.707031 18.65625 30.582031 20.433594 6.335938.863282 12.074219 3.710938 16.601562 8.238282 4.527344 4.527343 7.375 10.269531 8.242188 16.609374 1.773438 12.867188 9.21875 24.011719 20.4375 30.578126 5.519531 3.222656 9.730469 8.050781 12.183594 13.964843 2.449218 5.917969 2.882812 12.308594 1.253906 18.5-3.285156 12.566407-.671875 25.710938 7.183594 36.074219 3.863281 5.085938 5.910156 11.160156 5.910156 17.5625s-2.042969 12.476562-5.917969 17.570312zm0 0"/><path d="m333.164062 171.714844c-6.984374-28.5-23.566406-54.328125-46.6875-72.722656-23.835937-18.96875-52.527343-28.992188-82.976562-28.992188s-59.140625 10.023438-82.976562 28.992188c-23.121094 18.394531-39.703126 44.222656-46.6875 72.722656-.550782 2.234375-.039063 4.601562 1.382812 6.414062 1.417969 1.8125 3.59375 2.871094 5.898438 2.871094h244.765624c2.300782 0 4.476563-1.058594 5.898438-2.871094s1.933594-4.179687 1.382812-6.414062zm-242.085937-5.714844c16-48.144531 60.933594-81 112.421875-81s96.421875 32.855469 112.421875 81zm0 0"/><path d="m181 203.5c0 4.140625-3.359375 7.5-7.5 7.5s-7.5-3.359375-7.5-7.5 3.359375-7.5 7.5-7.5 7.5 3.359375 7.5 7.5zm0 0"/><path d="m211 203.5c0 4.140625-3.359375 7.5-7.5 7.5s-7.5-3.359375-7.5-7.5 3.359375-7.5 7.5-7.5 7.5 3.359375 7.5 7.5zm0 0"/><path d="m241 203.5c0 4.140625-3.359375 7.5-7.5 7.5s-7.5-3.359375-7.5-7.5 3.359375-7.5 7.5-7.5 7.5 3.359375 7.5 7.5zm0 0"/><path d="m75.21875 228.871094c-1.421875 1.8125-1.933594 4.179687-1.382812 6.414062 6.984374 28.5 23.566406 54.328125 46.6875 72.722656 23.835937 18.96875 52.527343 28.992188 82.976562 28.992188s59.140625-10.023438 82.976562-28.992188c23.121094-18.394531 39.703126-44.222656 46.6875-72.722656.550782-2.234375.039063-4.601562-1.382812-6.414062-1.417969-1.8125-3.59375-2.871094-5.898438-2.871094h-244.765624c-2.300782 0-4.476563 1.058594-5.898438 2.871094zm240.703125 12.128906c-16 48.144531-60.933594 81-112.421875 81-51.484375 0-96.421875-32.855469-112.421875-81zm0 0"/><path d="m203.5 40c-37.835938 0-74.75 13.277344-103.949219 37.386719-3.195312 2.636719-3.648437 7.363281-1.011719 10.558593 2.636719 3.191407 7.363282 3.644532 10.558594 1.007813 26.519532-21.894531 60.046875-33.953125 94.402344-33.953125 81.882812 0 148.5 66.617188 148.5 148.5s-66.617188 148.5-148.5 148.5-148.5-66.617188-148.5-148.5c0-34.328125 12.039062-67.832031 33.902344-94.339844 2.636718-3.195312 2.183594-7.921875-1.011719-10.558594-3.199219-2.636718-7.925781-2.179687-10.558594 1.015626-24.074219 29.1875-37.332031 66.082031-37.332031 103.882812 0 90.152344 73.347656 163.5 163.5 163.5s163.5-73.347656 163.5-163.5-73.347656-163.5-163.5-163.5zm0 0"/></svg>
