<?xml version="1.0" encoding="utf-8"?>
<!-- Generator: Adobe Illustrator 23.0.3, SVG Export Plug-In . SVG Version: 6.00 Build 0)  -->
<svg version="1.1" id="Слой_1" xmlns="http://www.w3.org/2000/svg" xmlns:xlink="http://www.w3.org/1999/xlink" x="0px" y="0px"
	 width="18px" height="16px" viewBox="0 0 18 16" style="enable-background:new 0 0 18 16;" xml:space="preserve">
<style type="text/css">
	.st0{fill:#848484;}
</style>
<path class="st0" d="M9,16c-0.3,0-0.5-0.1-0.7-0.3c-0.7-0.6-1.4-1.2-2-1.8l0,0c-1.8-1.5-3.4-2.9-4.5-4.2C0.6,8.3,0,6.9,0,5.4
	c0-1.5,0.5-2.8,1.4-3.8C2.4,0.5,3.6,0,5,0c1,0,2,0.3,2.8,1C8.3,1.3,8.7,1.7,9,2.2C9.3,1.7,9.7,1.3,10.1,1C11,0.3,11.9,0,13,0
	c1.4,0,2.7,0.6,3.6,1.6c0.9,1,1.4,2.4,1.4,3.8c0,1.5-0.6,2.9-1.8,4.4c-1.1,1.3-2.7,2.6-4.5,4.2c-0.6,0.5-1.3,1.1-2.1,1.8
	C9.5,15.9,9.3,16,9,16z M5,1C3.9,1,2.9,1.5,2.2,2.3C1.5,3.1,1.1,4.2,1.1,5.4c0,1.3,0.5,2.4,1.5,3.7c1,1.2,2.6,2.6,4.3,4.1l0,0
	C7.6,13.7,8.3,14.3,9,15c0.7-0.6,1.4-1.2,2.1-1.8c1.8-1.5,3.3-2.8,4.3-4.1c1.1-1.3,1.5-2.4,1.5-3.7c0-1.2-0.4-2.3-1.1-3.1
	C15.1,1.5,14.1,1,13,1c-0.8,0-1.5,0.3-2.2,0.8c-0.6,0.4-1,1-1.2,1.4C9.5,3.4,9.2,3.5,9,3.5S8.5,3.4,8.4,3.2c-0.2-0.4-0.6-1-1.2-1.4
	C6.6,1.3,5.8,1,5,1z"/>
</svg>
