<svg xmlns="http://www.w3.org/2000/svg" height="933pt" version="1.1" viewBox="-70 0 933 933.74796" width="933pt">
<g id="surface1">
<path d="M 13.339844 93.164062 C 38.699219 97.390625 58.574219 117.273438 62.792969 142.628906 C 64.0625 150.125 70.546875 155.605469 78.144531 155.605469 C 85.738281 155.605469 92.222656 150.125 93.492188 142.628906 C 97.710938 117.273438 117.585938 97.390625 142.945312 93.164062 C 150.433594 91.890625 155.910156 85.410156 155.910156 77.8125 C 155.910156 70.21875 150.433594 63.738281 142.945312 62.472656 C 117.585938 58.234375 97.710938 38.359375 93.492188 12.996094 C 92.222656 5.503906 85.738281 0.0273438 78.144531 0.0273438 C 70.546875 0.0273438 64.0625 5.503906 62.792969 12.996094 C 58.574219 38.359375 38.699219 58.234375 13.339844 62.472656 C 5.847656 63.738281 0.375 70.21875 0.375 77.8125 C 0.375 85.410156 5.847656 91.890625 13.339844 93.164062 Z M 78.144531 55.59375 C 84.210938 64.226562 91.734375 71.75 100.367188 77.8125 C 91.734375 83.878906 84.210938 91.398438 78.144531 100.039062 C 72.074219 91.398438 64.550781 83.878906 55.917969 77.8125 C 64.550781 71.75 72.074219 64.226562 78.144531 55.59375 Z M 78.144531 55.59375 " style=" stroke:none;fill-rule:nonzero;fill:rgb(0%,0%,0%);fill-opacity:1;" />
<path d="M 202.652344 871.503906 L 555.910156 871.503906 C 561.074219 884.464844 567.871094 896.707031 576.148438 907.941406 L 576.148438 933.746094 L 607.273438 933.746094 L 607.273438 902.632812 C 607.273438 899.097656 606.070312 895.667969 603.859375 892.902344 C 570.082031 851 565.53125 792.65625 592.40625 746.019531 L 605.210938 723.601562 C 608.667969 717.519531 607.644531 709.878906 602.707031 704.925781 L 470.421875 572.644531 C 455.433594 557.164062 455.621094 532.515625 470.859375 517.273438 C 486.109375 502.027344 510.761719 501.84375 526.238281 516.832031 L 689.644531 680.238281 L 711.644531 658.238281 L 653.957031 600.492188 L 653.957031 446.058594 L 728.238281 530.964844 C 750.582031 556.5 762.894531 589.261719 762.898438 623.183594 L 762.898438 933.746094 L 794.023438 933.746094 L 794.023438 623.183594 C 794.023438 581.722656 778.980469 541.664062 751.675781 510.457031 L 653.957031 398.773438 L 653.957031 15.5625 C 653.957031 6.96875 646.988281 0 638.394531 0 L 202.652344 0 C 194.042969 0 187.085938 6.96875 187.085938 15.5625 L 187.085938 855.941406 C 187.085938 864.535156 194.042969 871.503906 202.652344 871.503906 Z M 218.207031 840.378906 L 218.207031 93.378906 L 498.332031 93.378906 L 498.332031 124.496094 L 327.148438 124.496094 C 318.546875 124.496094 311.582031 131.464844 311.582031 140.0625 C 311.582031 165.851562 290.679688 186.75 264.894531 186.75 C 256.292969 186.75 249.335938 193.71875 249.335938 202.3125 L 249.335938 731.4375 C 249.335938 740.03125 256.292969 747.003906 264.894531 747.003906 C 290.679688 747.003906 311.582031 767.90625 311.582031 793.691406 C 311.582031 802.28125 318.546875 809.25 327.148438 809.25 L 513.898438 809.25 C 522.492188 809.25 529.460938 802.28125 529.460938 793.691406 C 529.511719 776.195312 539.375 760.214844 554.976562 752.3125 C 544.050781 780.324219 541.199219 810.835938 546.75 840.378906 Z M 513.898438 217.878906 L 560.585938 217.878906 L 560.585938 386.609375 C 524.679688 347.433594 473.644531 325.640625 420.519531 326.808594 C 367.398438 325.640625 316.355469 347.433594 280.457031 386.609375 L 280.457031 216.320312 C 310.996094 210.039062 334.863281 186.167969 341.152344 155.625 L 498.332031 155.625 L 498.332031 202.3125 C 498.332031 210.910156 505.296875 217.878906 513.898438 217.878906 Z M 529.460938 186.75 L 529.460938 115.378906 L 600.828125 186.75 Z M 457.160156 603.328125 L 570.230469 716.414062 C 535.640625 719.011719 506.960938 744.1875 499.886719 778.125 L 341.152344 778.125 C 334.863281 747.582031 310.996094 723.71875 280.457031 717.433594 L 280.457031 547.15625 C 316.355469 586.328125 367.398438 608.109375 420.519531 606.9375 C 432.808594 606.820312 445.074219 605.617188 457.160156 603.328125 Z M 448.425781 494.78125 C 427.390625 515.941406 421.964844 548.058594 434.882812 574.949219 C 430.105469 575.339844 425.335938 575.8125 420.519531 575.8125 C 343.273438 575.8125 280.457031 526.953125 280.457031 466.875 C 280.457031 406.808594 343.273438 357.933594 420.519531 357.933594 C 497.757812 357.933594 560.585938 406.808594 560.585938 466.875 C 560.460938 478.308594 558.078125 489.605469 553.578125 500.125 L 548.242188 494.78125 C 520.65625 467.246094 476.003906 467.246094 448.425781 494.78125 Z M 591.714844 538.246094 L 591.714844 217.878906 L 622.832031 217.878906 L 622.832031 569.367188 Z M 622.832031 31.125 L 622.832031 164.742188 L 524.894531 66.804688 C 523.574219 65.511719 522.042969 64.449219 520.351562 63.703125 C 519.851562 63.484375 519.367188 63.359375 518.796875 63.171875 C 517.519531 62.746094 516.199219 62.484375 514.859375 62.390625 C 514.566406 62.4375 514.253906 62.253906 513.898438 62.253906 L 218.207031 62.253906 L 218.207031 31.125 Z M 622.832031 31.125 " style=" stroke:none;fill-rule:nonzero;fill:rgb(0%,0%,0%);fill-opacity:1;" />
<path d="M 420.519531 202.3125 C 394.730469 202.3125 373.835938 223.21875 373.835938 249.003906 C 373.835938 274.792969 394.730469 295.691406 420.519531 295.691406 C 446.300781 295.691406 467.207031 274.792969 467.207031 249.003906 C 467.207031 223.21875 446.300781 202.3125 420.519531 202.3125 Z M 420.519531 264.566406 C 411.917969 264.566406 404.960938 257.597656 404.960938 249.003906 C 404.960938 240.40625 411.917969 233.4375 420.519531 233.4375 C 429.113281 233.4375 436.078125 240.40625 436.078125 249.003906 C 436.078125 257.597656 429.113281 264.566406 420.519531 264.566406 Z M 420.519531 264.566406 " style=" stroke:none;fill-rule:nonzero;fill:rgb(0%,0%,0%);fill-opacity:1;" />
<path d="M 373.835938 684.753906 C 373.835938 710.542969 394.730469 731.4375 420.519531 731.4375 C 446.300781 731.4375 467.207031 710.542969 467.207031 684.753906 C 467.207031 658.96875 446.300781 638.066406 420.519531 638.066406 C 394.730469 638.066406 373.835938 658.96875 373.835938 684.753906 Z M 436.078125 684.753906 C 436.078125 693.347656 429.113281 700.316406 420.519531 700.316406 C 411.917969 700.316406 404.960938 693.347656 404.960938 684.753906 C 404.960938 676.160156 411.917969 669.191406 420.519531 669.191406 C 429.113281 669.191406 436.078125 676.160156 436.078125 684.753906 Z M 436.078125 684.753906 " style=" stroke:none;fill-rule:nonzero;fill:rgb(0%,0%,0%);fill-opacity:1;" />
</g>
</svg>