<?xml version="1.0" encoding="utf-8"?>
<!-- Generator: Adobe Illustrator 23.0.3, SVG Export Plug-In . SVG Version: 6.00 Build 0)  -->
<svg version="1.1" id="Слой_1" xmlns="http://www.w3.org/2000/svg" xmlns:xlink="http://www.w3.org/1999/xlink" x="0px" y="0px"
	 width="16px" height="16px" viewBox="0 0 16 16" style="enable-background:new 0 0 16 16;" xml:space="preserve">
<style type="text/css">
	.st0{fill:#848484;}
</style>
<g>
	<path class="st0" d="M15.8,14.9L12,11c1-1.2,1.5-2.7,1.5-4.3c0-3.7-3-6.7-6.7-6.7C3,0,0,3,0,6.7s3,6.7,6.7,6.7
		c1.6,0,3.1-0.6,4.3-1.5l3.8,3.8c0.3,0.3,0.7,0.3,0.9,0C16.1,15.5,16.1,15.1,15.8,14.9z M6.7,12.1c-3,0-5.4-2.4-5.4-5.4
		s2.4-5.4,5.4-5.4c3,0,5.4,2.4,5.4,5.4S9.7,12.1,6.7,12.1z"/>
</g>
</svg>
