<?xml version="1.0" encoding="utf-8"?>
<svg version="1.1" id="Слой_1" xmlns="http://www.w3.org/2000/svg" xmlns:xlink="http://www.w3.org/1999/xlink" x="0px" y="0px"
     width="485px" height="485px" viewBox="0 0 485 485" style="enable-background:new 0 0 485 485;" xml:space="preserve">
<g>
	<g>
		<path d="M145,318.4h268.9c29.7,0,53.8-24.2,53.8-53.8V151.3c0-6.6-5.4-12-12-12s-12,5.4-12,12v113.2c0,16.5-13.4,29.8-29.8,29.8
			H145c-16.5,0-29.8-13.4-29.8-29.8v-66.7v-74.6v-9.7V43.3c0-0.4,0-0.8-0.1-1.3c0-0.1,0-0.2,0-0.3c0-0.3-0.1-0.6-0.1-0.8
			s-0.1-0.5-0.2-0.7c0-0.1-0.1-0.3-0.1-0.4c-0.1-0.3-0.2-0.5-0.3-0.7c0-0.1-0.1-0.2-0.1-0.4c-0.1-0.2-0.2-0.4-0.3-0.7
			c-0.1-0.1-0.1-0.3-0.2-0.4c-0.1-0.2-0.2-0.4-0.3-0.5c-0.1-0.2-0.2-0.3-0.3-0.5c-0.1-0.1-0.2-0.3-0.3-0.4c-0.1-0.2-0.3-0.4-0.4-0.6
			c-0.1-0.1-0.2-0.2-0.2-0.3c-0.2-0.2-0.3-0.4-0.5-0.6c-0.1-0.1-0.2-0.1-0.2-0.2c-0.2-0.2-0.4-0.4-0.6-0.6c-0.1-0.1-0.2-0.2-0.3-0.2
			c-0.2-0.2-0.4-0.3-0.6-0.5c-0.2-0.1-0.4-0.3-0.7-0.4c-0.1-0.1-0.2-0.1-0.3-0.2c-0.4-0.2-0.8-0.4-1.1-0.6L33.9,1
			c-6.1-2.6-13.1,0.3-15.7,6.4c-2.6,6,0.3,13.1,6.4,15.7l66.5,28.1v62.3v9.7v74.6v66.7v84.3c0,28.2,21.7,51.3,49.3,53.6
			c-5.6,8.4-8.9,18.5-8.9,29.4c0,29.3,23.9,53.2,53.2,53.2s53.2-23.9,53.2-53.2c0-10.8-3.2-20.8-8.7-29.2h127.3
			c-5.5,8.4-8.7,18.4-8.7,29.2c0,29.3,23.9,53.2,53.2,53.2s53.2-23.9,53.2-53.2s-23.9-53.2-53.2-53.2H145
			c-16.5,0-29.8-13.4-29.8-29.8v-39.5C123.7,315,134,318.4,145,318.4z M213.9,431.8c0,16.1-13.1,29.2-29.2,29.2
			s-29.2-13.1-29.2-29.2s13.1-29.2,29.2-29.2S213.9,415.7,213.9,431.8z M430.1,431.8c0,16.1-13.1,29.2-29.2,29.2
			s-29.2-13.1-29.2-29.2s13.1-29.2,29.2-29.2S430.1,415.7,430.1,431.8z"/>
		<path d="M181.6,247.3h195.8c6.6,0,12-5.4,12-12V61.9c0-6.6-5.4-12-12-12H181.6c-6.6,0-12,5.4-12,12v173.3
			C169.6,241.9,174.9,247.3,181.6,247.3z M193.6,88.6l152.1,134.7H193.6L193.6,88.6L193.6,88.6z M365.3,208.6L213.2,73.9h152.1
			V208.6z"/>
	</g>
</g>
</svg>
