<?xml version="1.0" encoding="utf-8"?>
<!-- Generator: Adobe Illustrator 23.0.6, SVG Export Plug-In . SVG Version: 6.00 Build 0)  -->
<svg version="1.1" id="Layer_1" xmlns="http://www.w3.org/2000/svg" xmlns:xlink="http://www.w3.org/1999/xlink" x="0px" y="0px"
	 viewBox="0 0 15 15" style="enable-background:new 0 0 15 15;" xml:space="preserve">
<style type="text/css">
	.st0{fill:#FFFFFF;}
</style>
<g>
	<g>
		<path class="st0" d="M14.2,6.1L14.2,6.1l-10,0l3.2-3.8c0.2-0.2,0.2-0.4,0.2-0.7c0-0.3-0.1-0.5-0.2-0.7L6.8,0.3
			C6.7,0.1,6.4,0,6.2,0C6,0,5.8,0.1,5.6,0.3L0.2,6.8C0.1,7,0,7.2,0,7.5C0,7.8,0.1,8,0.2,8.2l5.4,6.5C5.8,14.9,6,15,6.2,15
			c0.2,0,0.4-0.1,0.6-0.3l0.5-0.6c0.2-0.2,0.2-0.4,0.2-0.7c0-0.3-0.1-0.5-0.2-0.7L4.1,8.9h10.1c0.5,0,0.8-0.5,0.8-1V7.1
			C15,6.5,14.6,6.1,14.2,6.1z"/>
	</g>
</g>
</svg>
