<?xml version="1.0" encoding="utf-8"?>
<!-- Generator: Adobe Illustrator 23.0.6, SVG Export Plug-In . SVG Version: 6.00 Build 0)  -->
<svg version="1.1" id="Layer_1" xmlns="http://www.w3.org/2000/svg" xmlns:xlink="http://www.w3.org/1999/xlink" x="0px" y="0px"
	 viewBox="0 0 15 15" style="enable-background:new 0 0 15 15;" xml:space="preserve">
<style type="text/css">
	.st0{fill:#FFFFFF;}
</style>
<g>
	<g>
		<path class="st0" d="M0,7.1l0,0.8c0,0.5,0.4,1,0.8,1h10.1l-3.2,3.8c-0.2,0.2-0.2,0.4-0.2,0.7c0,0.3,0.1,0.5,0.2,0.7l0.5,0.6
			C8.3,14.9,8.6,15,8.8,15c0.2,0,0.4-0.1,0.6-0.3l5.4-6.5C14.9,8,15,7.8,15,7.5c0-0.3-0.1-0.5-0.2-0.7L9.4,0.3C9.2,0.1,9,0,8.8,0
			C8.6,0,8.3,0.1,8.2,0.3L7.7,0.9C7.5,1.1,7.5,1.3,7.5,1.6c0,0.3,0.1,0.5,0.2,0.7l3.2,3.8h-10l0,0C0.4,6.1,0,6.5,0,7.1z"/>
	</g>
</g>
</svg>
