<?xml version="1.0" encoding="UTF-8"?><!DOCTYPE svg PUBLIC "-//W3C//DTD SVG 1.1//EN" "http://www.w3.org/Graphics/SVG/1.1/DTD/svg11.dtd"><svg xmlns="http://www.w3.org/2000/svg" xmlns:xlink="http://www.w3.org/1999/xlink"><defs>
        <style>
            .cls-1{fill:#848484;fill-rule:evenodd}
        </style>
    </defs><symbol id="icon-box-map" viewBox="0 0 482 482">
    <path d="M279.8 244.8l-21.6 12.5V482l194.5-112.3V145z"/>
    <path d="M315 43.3L240.2 0 40.3 115.4l74.9 43.3z"/>
    <path d="M440 115.4l-86.2-49.1L154 181.7l11.4 5.9 74.8 43.2 74.4-42.9z"/>
    <path d="M138.9 264.3l-35.8-18.4v-57.2l-73.8-42.5v223.1l193.1 111.5V257.7l-83.5-48.1z"/>
</symbol><symbol id="icon-box" viewBox="0 0 512 512">
    <path d="M491.729 112.971L259.261.745a7.503 7.503 0 0 0-6.521 0L20.271 112.971a7.5 7.5 0 0 0-4.239 6.754v272.549a7.5 7.5 0 0 0 4.239 6.754l232.468 112.226a7.504 7.504 0 0 0 6.522 0l232.468-112.226a7.5 7.5 0 0 0 4.239-6.754V119.726a7.502 7.502 0 0 0-4.239-6.755zM256 15.828l215.217 103.897-62.387 30.118a7.434 7.434 0 0 0-1.27-.8L193.805 45.853 256 15.828zm-79.133 38.505l214.904 103.746-44.015 21.249L132.941 75.624l43.926-21.291zm219.932 117.974v78.546l-41.113 19.848v-78.546l41.113-19.848zm84.169 215.261L263.5 492.55V236.658l51.873-25.042a7.5 7.5 0 1 0-6.522-13.508L256 223.623l-20.796-10.04a7.498 7.498 0 0 0-10.015 3.493 7.5 7.5 0 0 0 3.493 10.015l19.818 9.567V492.55L31.032 387.566V131.674l165.6 79.945a7.463 7.463 0 0 0 3.255.748 7.5 7.5 0 0 0 3.266-14.256l-162.37-78.386 74.505-35.968L340.582 192.52c.033.046.07.087.104.132v89.999a7.502 7.502 0 0 0 10.761 6.754l56.113-27.089a7.499 7.499 0 0 0 4.239-6.754v-90.495l69.169-33.392v255.893z"/>
    <path d="M92.926 358.479L58.811 342.01a7.5 7.5 0 0 0-6.522 13.508l34.115 16.469a7.463 7.463 0 0 0 3.255.748 7.5 7.5 0 0 0 6.759-4.241 7.499 7.499 0 0 0-3.492-10.015z"/>
    <path d="M124.323 338.042l-65.465-31.604a7.501 7.501 0 0 0-6.521 13.509l65.465 31.604a7.477 7.477 0 0 0 3.255.748 7.5 7.5 0 0 0 3.266-14.257z"/>
</symbol><symbol id="icon-car-wash" viewBox="0 0 474 474">
    <path d="M343.467 89.6c17.707 0 32-14.293 32-32 0-21.333-32-57.6-32-57.6s-32 36.267-32 57.6c0 17.707 14.293 32 32 32z"/>
    <path d="M236.8 89.6c17.707 0 32-14.293 32-32 0-21.333-32-57.6-32-57.6s-32 36.267-32 57.6c0 17.707 14.293 32 32 32z"/>
    <path d="M384.427 153.813c-4.373-12.587-16.32-21.547-30.293-21.547H119.467c-13.973 0-25.92 8.96-30.293 21.547L44.8 281.6v170.667C44.8 464 54.4 473.6 66.133 473.6h21.333c11.84 0 21.333-9.6 21.333-21.333v-21.333h256v21.333c0 11.733 9.6 21.333 21.333 21.333h21.333c11.84 0 21.333-9.6 21.333-21.333V281.6l-44.371-127.787zm-264.96 213.12c-17.707 0-32-14.293-32-32s14.293-32 32-32 32 14.293 32 32-14.294 32-32 32zm234.666 0c-17.707 0-32-14.293-32-32s14.293-32 32-32 32 14.293 32 32-14.293 32-32 32zM87.467 260.267l32-96h234.667l32 96H87.467z"/>
    <path d="M130.133 89.6c17.707 0 32-14.293 32-32 0-21.333-32-57.6-32-57.6s-32 36.267-32 57.6c0 17.707 14.294 32 32 32z"/>
</symbol><symbol id="icon-comparing" viewBox="0 0 14 18">
    
    <path id="comparing" class="cls-1" d="M1684 32h-2v-8h2v8zm4 0h-2V20h2v12zm4 0h-2V22h2v10zm4 0h-2V14h2v18z" transform="translate(-1682 -14)"/>
</symbol><symbol id="icon-credit-card" viewBox="0 0 937 937">
    <path d="M140.875 468.75c-43.125.055-78.07 35-78.125 78.125a77.366 77.366 0 0 0 15.984 46.875c-24.52 32.168-20.43 77.727 9.414 105.008 29.868 27.289 75.586 27.289 105.454 0 29.843-27.281 33.933-72.84 9.414-105.008A77.366 77.366 0 0 0 219 546.875c-.055-43.125-35-78.07-78.125-78.125zm0 31.25c19.484-.086 36.984 11.953 43.871 30.176 6.887 18.23 1.734 38.824-12.934 51.652-.085 0-.203 0-.28.156a47.626 47.626 0 0 1-19.52 10.278c-.45.117-.871.316-1.325.414a45.313 45.313 0 0 1-19.625 0c-.453-.098-.875-.297-1.324-.414a47.7 47.7 0 0 1-19.52-10.278c0-.074-.195-.09-.28-.156C95.27 569 90.118 548.406 97.004 530.176c6.887-18.223 24.387-30.262 43.871-30.176zm0 187.5C114.992 687.5 94 666.508 94 640.625a45.526 45.526 0 0 1 8.156-26.125c1.07.613 2.203 1.047 3.293 1.563a77.112 77.112 0 0 0 11.098 4.687c1.742.563 3.437 1.172 5.187 1.563 2.536.64 5.11 1.105 7.72 1.562 1.562.234 3.124.344 4.683.465 2.25.21 4.425.691 6.73.691 2.293 0 4.461-.48 6.719-.691 1.55-.121 3.113-.23 4.676-.465 2.617-.395 5.191-.86 7.722-1.563 1.75-.437 3.45-1.042 5.188-1.562a76.742 76.742 0 0 0 11.098-4.688c1.09-.558 2.214-1.003 3.296-1.562a45.564 45.564 0 0 1 8.184 26.125c0 25.883-20.992 46.875-46.875 46.875zm0 0"/>
    <path d="M322.125 218.75h75c22.438 0 40.625-18.188 40.625-40.625v-75c0-22.438-18.188-40.625-40.625-40.625h-75c-22.438 0-40.625 18.188-40.625 40.625v75c0 22.438 18.188 40.625 40.625 40.625zm-9.375-115.625c0-5.176 4.2-9.375 9.375-9.375H344V125h31.25V93.75h21.875c5.176 0 9.375 4.2 9.375 9.375v75c0 5.176-4.2 9.375-9.375 9.375H375.25v-31.25H344v31.25h-21.875c-5.176 0-9.375-4.2-9.375-9.375zm0 0"/>
    <path d="M203.375 78.125h31.25v62.5h-31.25zm0 0"/>
    <path d="M109.625 78.125h31.25v62.5h-31.25zm0 0"/>
    <path d="M109.625 359.375h31.25v62.5h-31.25zm0 0"/>
    <path d="M203.375 171.875h31.25v62.5h-31.25zm0 0"/>
    <path d="M203.375 265.625h31.25v62.5h-31.25zm0 0"/>
    <path d="M203.375 359.375h31.25v62.5h-31.25zm0 0"/>
    <path d="M640.875 921.875V563.184A171.881 171.881 0 0 0 598.355 450L500.25 337.883V78.125C500.195 35 465.25.055 422.125 0H78.375C35.25.055.305 35 .25 78.125v625c.055 43.125 35 78.07 78.125 78.125H394.66a202.433 202.433 0 0 0 11.84 49.39v91.235c0 8.633 6.992 15.625 15.625 15.625H625.25c8.633 0 15.625-6.992 15.625-15.625zm-66.047-451.281a140.569 140.569 0 0 1 34.797 92.59V812.5H433.297a171.656 171.656 0 0 1 9.187-130.766l9.25-18.5c3.008-6.011 1.817-13.277-2.937-18.03L315.984 512.39c-15.464-15.477-15.464-40.555 0-56.032 15.688-14.945 40.344-14.945 56.032 0l164.062 164.063 22.094-22.094-57.922-57.922V385.348zM31.5 703.125v-625c0-25.883 20.992-46.875 46.875-46.875h343.75C448.008 31.25 469 52.242 469 78.125v431.031l-74.89-74.89c-27.673-27.672-72.548-27.672-100.22 0-27.671 27.671-27.671 72.546 0 100.218l124.844 124.844-4.203 8.422A202.96 202.96 0 0 0 393.293 750H78.375C52.492 750 31.5 729.008 31.5 703.125zM609.625 906.25H437.75v-62.5h171.875zm0 0"/>
</symbol><symbol id="icon-discount" viewBox="0 0 512 512">
    <path d="M468.881 0H332.348c-26.402 0-46.071 8.405-65.766 28.1a8.525 8.525 0 0 0 0 12.066 8.523 8.523 0 0 0 12.066 0c16.623-16.623 31.684-23.1 53.7-23.1h136.533c14.114 0 25.6 11.486 25.6 25.6V179.2c0 22.025-6.477 37.077-23.108 53.7L217.95 486.682c-9.677 9.668-26.547 9.66-36.198 0L24.866 329.796c-4.838-4.838-7.501-11.264-7.501-18.108 0-6.835 2.662-13.261 7.501-18.091L253.918 64.87c3.516.896 7.049 1.792 10.701 2.773 34.722 9.301 62.114 18.91 82.534 27.494-4.019 7.432-6.272 15.77-6.272 24.329 0 28.237 22.963 51.2 51.2 51.2s51.2-22.963 51.2-51.2c0-28.237-22.963-51.2-51.2-51.2-4.719 0-8.533 3.823-8.533 8.533s3.814 8.533 8.533 8.533c18.825 0 34.133 15.309 34.133 34.133 0 18.825-15.309 34.133-34.133 34.133s-34.133-15.309-34.133-34.133a34.065 34.065 0 0 1 4.779-17.365c14.78 7.074 24.021 13.039 27.674 16.845-1.562.444-3.977.939-7.62 1.254-4.693.418-8.166 4.557-7.748 9.25.393 4.437 4.113 7.791 8.491 7.791.247 0 .503-.017.759-.034 5.248-.469 21.214-1.877 24.286-13.321 8.405-31.394-114.756-66.091-139.529-72.73C231.143 41 194.74 34.054 166.546 31.597c-34.671-3.038-51.541.913-54.707 12.774-1.527 5.692-5.572 20.804 63.607 48.085 4.403 1.724 9.344-.418 11.076-4.813 1.724-4.378-.427-9.336-4.804-11.059-33.425-13.184-47.275-22.844-51.729-27.392 10.539-3.089 46.524-2.193 104.465 10.982L12.8 281.523C4.736 289.587.299 300.296.299 311.688c0 11.401 4.437 22.118 12.501 30.174l156.885 156.885c8.055 8.055 18.765 12.493 30.165 12.493 11.392 0 22.101-4.437 30.174-12.501l253.423-253.773c19.703-19.695 28.1-39.364 28.1-65.766V42.667C511.548 19.14 492.407 0 468.881 0z"/>
    <path d="M443.068 312.107a8.519 8.519 0 0 0-11.682 3.046l-97.809 166.835c-7.066 12.228-22.741 16.444-34.594 9.6L279.92 479.24c-3.951-2.569-9.242-1.434-11.793 2.517-2.569 3.951-1.434 9.242 2.517 11.802l19.43 12.578a42.333 42.333 0 0 0 21.265 5.709c14.754 0 29.107-7.637 36.983-21.274l97.783-166.793c2.381-4.061 1.025-9.291-3.037-11.672z"/>
    <path d="M204.348 247.467v119.467c0 4.71 3.814 8.533 8.533 8.533s8.533-3.823 8.533-8.533V247.467c0-4.71-3.814-8.533-8.533-8.533s-8.533 3.822-8.533 8.533z"/>
    <path d="M255.548 273.067c0 9.412 7.654 17.067 17.067 17.067s17.067-7.654 17.067-17.067c0-9.412-7.654-17.067-17.067-17.067s-17.067 7.654-17.067 17.067z"/>
    <path d="M136.081 324.267c0 9.412 7.654 17.067 17.067 17.067 9.412 0 17.067-7.654 17.067-17.067S162.56 307.2 153.148 307.2c-9.413 0-17.067 7.654-17.067 17.067z"/>
</symbol><symbol id="icon-guarantee" viewBox="0 0 410 512">
    <path d="M407 203.5c0-9.71-3.102-18.922-8.965-26.633-5.047-6.664-6.73-15.12-4.617-23.195 2.469-9.379 1.809-19.078-1.91-28.047-3.715-8.969-10.106-16.297-18.473-21.176-7.215-4.222-12.004-11.394-13.144-19.664-1.309-9.61-5.63-18.316-12.496-25.18-6.864-6.867-15.57-11.187-25.168-12.496-8.282-1.14-15.454-5.933-19.672-13.136-4.887-8.375-12.211-14.77-21.18-18.48a43.788 43.788 0 0 0-16.84-3.364 44.04 44.04 0 0 0-11.195 1.45 27.045 27.045 0 0 1-6.852.882 27.223 27.223 0 0 1-16.347-5.492C222.42 3.102 213.21 0 203.5 0s-18.922 3.102-26.633 8.965a27.24 27.24 0 0 1-16.355 5.496c-2.313 0-4.614-.297-6.84-.879a44.058 44.058 0 0 0-11.211-1.453 43.769 43.769 0 0 0-16.836 3.363c-8.973 3.715-16.297 10.106-21.176 18.473-4.222 7.21-11.394 12.004-19.664 13.144-9.61 1.309-18.316 5.63-25.18 12.496-6.867 6.864-11.187 15.57-12.496 25.168-1.14 8.282-5.933 15.454-13.136 19.668-8.375 4.887-14.766 12.211-18.48 21.184-3.716 8.969-4.376 18.668-1.915 28.035 2.117 8.086.434 16.547-4.61 23.2C3.103 184.577 0 193.792 0 203.5c0 9.71 3.102 18.922 8.965 26.633 5.047 6.664 6.73 15.12 4.617 23.199-2.469 9.379-1.809 19.074 1.906 28.047 3.719 8.969 10.11 16.293 18.477 21.176 7.21 4.222 12.004 11.39 13.144 19.664 1.309 9.605 5.63 18.312 12.496 25.18 6.864 6.867 15.575 11.187 25.168 12.492 8.282 1.14 15.454 5.933 19.668 13.136 4.887 8.38 12.211 14.77 21.18 18.485A44.122 44.122 0 0 0 136 394.395V504.5a7.5 7.5 0 0 0 12 6l55.5-41.625L259 510.5a7.49 7.49 0 0 0 7.852.707A7.497 7.497 0 0 0 271 504.5V394.395a44.28 44.28 0 0 0 10.375-2.883c8.969-3.719 16.293-10.11 21.176-18.477 4.222-7.21 11.394-12.004 19.664-13.144 9.61-1.309 18.316-5.63 25.18-12.496 6.867-6.864 11.187-15.57 12.496-25.168 1.14-8.282 5.933-15.454 13.136-19.672 8.375-4.887 14.766-12.211 18.48-21.18 3.716-8.973 4.376-18.668 1.915-28.035-2.117-8.086-.434-16.547 4.61-23.2 5.866-7.718 8.968-16.93 8.968-26.64zm-199 250a7.5 7.5 0 0 0-9 0l-48 36v-95.469c.89-.176 1.781-.379 2.66-.61a27.045 27.045 0 0 1 6.852-.882c5.87 0 11.68 1.953 16.347 5.492 7.72 5.867 16.93 8.969 26.641 8.969s18.922-3.102 26.633-8.965a27.258 27.258 0 0 1 16.355-5.496c2.313 0 4.617.297 6.84.879.887.234 1.777.434 2.672.613V489.5zm178.082-232.43c-7.844 10.356-10.46 23.5-7.172 36.075 1.63 6.183 1.192 12.574-1.258 18.492-2.449 5.914-6.664 10.742-12.191 13.968-11.211 6.563-18.656 17.708-20.43 30.586-.863 6.329-3.71 12.07-8.242 16.598-4.523 4.527-10.266 7.375-16.61 8.242-12.866 1.774-24.011 9.219-30.577 20.438-3.22 5.52-8.047 9.73-13.965 12.183a28.86 28.86 0 0 1-11.098 2.22 28.99 28.99 0 0 1-7.402-.962 42.057 42.057 0 0 0-10.645-1.37c-9.12 0-18.148 3.034-25.426 8.55-5.09 3.867-11.164 5.91-17.566 5.91s-12.477-2.043-17.574-5.918c-7.27-5.508-16.293-8.543-25.414-8.543-3.59 0-7.172.461-10.66 1.371a28.995 28.995 0 0 1-18.489-1.262c-5.914-2.449-10.746-6.66-13.968-12.187-6.563-11.211-17.707-18.656-30.586-20.434-6.332-.859-12.07-3.71-16.598-8.238-4.527-4.527-7.375-10.266-8.242-16.61-1.774-12.866-9.219-24.011-20.438-30.577-5.52-3.22-9.73-8.051-12.183-13.965-2.45-5.914-2.887-12.309-1.258-18.5 3.289-12.567.672-25.711-7.18-36.074-3.867-5.086-5.91-11.16-5.91-17.563s2.043-12.477 5.918-17.57c7.844-10.356 10.46-23.496 7.172-36.075-1.625-6.18-1.192-12.574 1.258-18.488 2.453-5.918 6.664-10.746 12.191-13.972 11.211-6.563 18.656-17.704 20.434-30.582.863-6.333 3.71-12.075 8.238-16.602 4.527-4.527 10.27-7.375 16.61-8.242 12.867-1.77 24.011-9.219 30.577-20.438 3.223-5.52 8.051-9.73 13.965-12.183a28.992 28.992 0 0 1 18.5-1.258 42.065 42.065 0 0 0 10.649 1.37c9.12 0 18.148-3.034 25.426-8.55 5.085-3.867 11.16-5.91 17.562-5.91s12.477 2.043 17.574 5.918c7.27 5.508 16.293 8.543 25.414 8.543 3.59 0 7.172-.461 10.66-1.371a28.996 28.996 0 0 1 18.489 1.262c5.914 2.449 10.746 6.66 13.968 12.187 6.563 11.211 17.708 18.656 30.583 20.434 6.335.863 12.074 3.71 16.601 8.238 4.527 4.527 7.375 10.27 8.242 16.61 1.774 12.867 9.219 24.011 20.438 30.577 5.52 3.223 9.73 8.051 12.183 13.965 2.45 5.918 2.883 12.309 1.254 18.5-3.285 12.567-.672 25.711 7.184 36.075 3.863 5.085 5.91 11.16 5.91 17.562s-2.043 12.477-5.918 17.57zm0 0"/>
    <path d="M333.164 171.715c-6.984-28.5-23.566-54.328-46.687-72.723C262.64 80.023 233.949 70 203.5 70s-59.14 10.023-82.977 28.992c-23.12 18.395-39.703 44.223-46.687 72.723a7.492 7.492 0 0 0 1.383 6.414A7.488 7.488 0 0 0 81.117 181h244.766a7.499 7.499 0 0 0 7.281-9.285zM91.078 166c16-48.145 60.934-81 112.422-81s96.422 32.855 112.422 81zm0 0"/>
    <path d="M181 203.5c0 4.14-3.36 7.5-7.5 7.5s-7.5-3.36-7.5-7.5 3.36-7.5 7.5-7.5 7.5 3.36 7.5 7.5zm0 0"/>
    <path d="M211 203.5c0 4.14-3.36 7.5-7.5 7.5s-7.5-3.36-7.5-7.5 3.36-7.5 7.5-7.5 7.5 3.36 7.5 7.5zm0 0"/>
    <path d="M241 203.5c0 4.14-3.36 7.5-7.5 7.5s-7.5-3.36-7.5-7.5 3.36-7.5 7.5-7.5 7.5 3.36 7.5 7.5zm0 0"/>
    <path d="M75.219 228.871a7.492 7.492 0 0 0-1.383 6.414c6.984 28.5 23.566 54.328 46.687 72.723C144.36 326.977 173.051 337 203.5 337s59.14-10.023 82.977-28.992c23.12-18.395 39.703-44.223 46.687-72.723a7.492 7.492 0 0 0-1.383-6.414 7.488 7.488 0 0 0-5.898-2.871H81.117a7.499 7.499 0 0 0-5.898 2.871zM315.922 241c-16 48.145-60.934 81-112.422 81-51.484 0-96.422-32.855-112.422-81zm0 0"/>
    <path d="M203.5 40c-37.836 0-74.75 13.277-103.95 37.387a7.5 7.5 0 0 0-1.01 10.558 7.503 7.503 0 0 0 10.558 1.008C135.618 67.06 169.145 55 203.5 55 285.383 55 352 121.617 352 203.5S285.383 352 203.5 352 55 285.383 55 203.5c0-34.328 12.04-67.832 33.902-94.34a7.5 7.5 0 1 0-11.57-9.543C53.258 128.805 40 165.7 40 203.5 40 293.652 113.348 367 203.5 367S367 293.652 367 203.5 293.652 40 203.5 40zm0 0"/>
</symbol><symbol id="icon-heart" viewBox="0 0 18 16">
    <style>
        .st0{fill:#848484}
    </style>
    <path class="st0" d="M9 16c-.3 0-.5-.1-.7-.3-.7-.6-1.4-1.2-2-1.8-1.8-1.5-3.4-2.9-4.5-4.2C.6 8.3 0 6.9 0 5.4s.5-2.8 1.4-3.8C2.4.5 3.6 0 5 0c1 0 2 .3 2.8 1 .5.3.9.7 1.2 1.2.3-.5.7-.9 1.1-1.2.9-.7 1.8-1 2.9-1 1.4 0 2.7.6 3.6 1.6.9 1 1.4 2.4 1.4 3.8 0 1.5-.6 2.9-1.8 4.4-1.1 1.3-2.7 2.6-4.5 4.2-.6.5-1.3 1.1-2.1 1.8-.1.1-.3.2-.6.2zM5 1c-1.1 0-2.1.5-2.8 1.3-.7.8-1.1 1.9-1.1 3.1 0 1.3.5 2.4 1.5 3.7 1 1.2 2.6 2.6 4.3 4.1.7.5 1.4 1.1 2.1 1.8l2.1-1.8c1.8-1.5 3.3-2.8 4.3-4.1 1.1-1.3 1.5-2.4 1.5-3.7 0-1.2-.4-2.3-1.1-3.1C15.1 1.5 14.1 1 13 1c-.8 0-1.5.3-2.2.8-.6.4-1 1-1.2 1.4-.1.2-.4.3-.6.3s-.5-.1-.6-.3c-.2-.4-.6-1-1.2-1.4C6.6 1.3 5.8 1 5 1z"/>
</symbol><symbol id="icon-lock" viewBox="0 0 512 512">
    <path d="M333.12 506.88H50.88c-25.924 0-47.04-21.092-47.04-47.04V240.32c0-25.947 21.116-47.04 47.04-47.04h282.24c25.924 0 47.04 21.093 47.04 47.04v219.52c0 25.948-21.116 47.04-47.04 47.04zM50.88 224.64c-8.637 0-15.68 7.025-15.68 15.68v219.52c0 8.656 7.043 15.68 15.68 15.68h282.24c8.637 0 15.68-7.024 15.68-15.68V240.32c0-8.655-7.043-15.68-15.68-15.68zm0 0" data-original="#000000" class="active-path" data-old_color="#000000"/>
    <path d="M301.76 224.64c-8.655 0-15.68-7.025-15.68-15.68v-78.4c0-51.871-42.209-94.08-94.08-94.08s-94.08 42.209-94.08 94.08v78.4c0 8.655-7.025 15.68-15.68 15.68s-15.68-7.025-15.68-15.68v-78.4C66.56 61.378 122.818 5.12 192 5.12s125.44 56.258 125.44 125.44v78.4c0 8.655-7.024 15.68-15.68 15.68zm0 0" data-original="#000000" class="active-path" data-old_color="#000000"/>
</symbol><symbol id="icon-menu-grid" viewBox="0 0 13 13">
    <path class="st0" d="M0 9.9h3.1V13H0z"/>
    <path class="st0" d="M0 4.9h3.1V8H0z"/>
    <path class="st0" d="M0 0h3.1v3.1H0z"/>
    <path class="st0" d="M4.9 9.9H8V13H4.9z"/>
    <path class="st0" d="M4.9 4.9H8V8H4.9z"/>
    <path class="st0" d="M4.9 0H8v3.1H4.9z"/>
    <path class="st0" d="M9.9 9.9H13V13H9.9z"/>
    <path class="st0" d="M9.9 4.9H13V8H9.9z"/>
    <path class="st0" d="M9.9 0H13v3.1H9.9z"/>
</symbol><symbol id="icon-menu-list" viewBox="0 0 13 13">
    <path class="st0" d="M0 9.9h3.1V13H0z"/>
    <path class="st0" d="M0 4.9h3.1V8H0z"/>
    <path class="st0" d="M0 0h3.1v3.1H0z"/>
    <path class="st0" d="M4.9 9.9H13V13H4.9z"/>
    <path class="st0" d="M4.9 4.9H13V8H4.9z"/>
    <path class="st0" d="M4.9 0H13v3.1H4.9z"/>
</symbol><symbol id="icon-payment" viewBox="0 0 933 933">
    <path d="M13.34 93.164c25.36 4.227 45.234 24.11 49.453 49.465a15.569 15.569 0 0 0 15.352 12.976c7.593 0 14.078-5.48 15.347-12.976 4.219-25.356 24.094-45.238 49.453-49.465a15.569 15.569 0 0 0 12.965-15.352 15.554 15.554 0 0 0-12.965-15.34c-25.36-4.238-45.234-24.113-49.453-49.476A15.565 15.565 0 0 0 78.145.027a15.566 15.566 0 0 0-15.352 12.97C58.574 38.358 38.699 58.233 13.34 62.472A15.55 15.55 0 0 0 .375 77.813 15.565 15.565 0 0 0 13.34 93.163zm64.805-37.57a91.307 91.307 0 0 0 22.222 22.218 91.27 91.27 0 0 0-22.222 22.227 91.355 91.355 0 0 0-22.227-22.227 91.392 91.392 0 0 0 22.227-22.218zm0 0"/>
    <path d="M202.652 871.504H555.91a163.335 163.335 0 0 0 20.238 36.437v25.805h31.125v-31.113a15.58 15.58 0 0 0-3.414-9.73C570.082 851 565.531 792.655 592.406 746.02l12.805-22.418a15.561 15.561 0 0 0-2.504-18.676L470.422 572.645c-14.988-15.48-14.8-40.13.437-55.372 15.25-15.246 39.903-15.43 55.38-.441l163.406 163.406 22-22-57.688-57.746V446.06l74.281 84.906a140.053 140.053 0 0 1 34.66 92.219v310.562h31.125V623.184a171.19 171.19 0 0 0-42.347-112.727l-97.719-111.684V15.563C653.957 6.969 646.988 0 638.395 0H202.652c-8.609 0-15.566 6.969-15.566 15.563V855.94c0 8.594 6.957 15.563 15.566 15.563zm15.555-31.125v-747h280.125v31.117H327.148c-8.601 0-15.566 6.969-15.566 15.567 0 25.789-20.902 46.687-46.687 46.687-8.602 0-15.56 6.969-15.56 15.563v529.125c0 8.593 6.958 15.566 15.56 15.566 25.785 0 46.687 20.902 46.687 46.687 0 8.59 6.965 15.559 15.566 15.559h186.75c8.594 0 15.563-6.969 15.563-15.559a46.539 46.539 0 0 1 25.516-41.379 160.696 160.696 0 0 0-8.227 88.067zm295.691-622.5h46.688v168.73a184.485 184.485 0 0 0-140.066-59.8 184.47 184.47 0 0 0-140.063 59.8V216.32c30.54-6.28 54.406-30.152 60.695-60.695h157.18v46.688c0 8.597 6.965 15.566 15.566 15.566zm15.563-31.129v-71.371l71.367 71.371zm-72.3 416.578l113.07 113.086c-34.59 2.598-63.27 27.774-70.344 61.711H341.152c-6.289-30.543-30.156-54.406-60.695-60.691V547.156a184.453 184.453 0 0 0 140.063 59.782 207.556 207.556 0 0 0 36.64-3.61zm-8.735-108.547c-21.035 21.16-26.461 53.278-13.543 80.168-4.778.39-9.547.864-14.363.864-77.247 0-140.063-48.86-140.063-108.938 0-60.066 62.816-108.941 140.063-108.941 77.238 0 140.066 48.875 140.066 108.941a86.954 86.954 0 0 1-7.008 33.25l-5.336-5.344c-27.586-27.535-72.238-27.535-99.816 0zm143.289 43.465V217.88h31.117v351.488zm31.117-507.121v133.617l-97.937-97.937a15.385 15.385 0 0 0-4.543-3.102c-.5-.219-.985-.344-1.555-.531a15.962 15.962 0 0 0-3.938-.781c-.293.047-.605-.137-.96-.137H218.206V31.125zm0 0"/>
    <path d="M420.52 202.313c-25.79 0-46.684 20.906-46.684 46.69 0 25.79 20.894 46.688 46.684 46.688 25.78 0 46.687-20.898 46.687-46.687 0-25.785-20.906-46.691-46.687-46.691zm0 62.253c-8.602 0-15.56-6.968-15.56-15.562 0-8.598 6.958-15.566 15.56-15.566 8.593 0 15.558 6.968 15.558 15.566 0 8.594-6.965 15.562-15.558 15.562zm0 0"/>
    <path d="M373.836 684.754c0 25.789 20.894 46.683 46.684 46.683 25.78 0 46.687-20.894 46.687-46.683 0-25.785-20.906-46.688-46.687-46.688-25.79 0-46.684 20.903-46.684 46.688zm62.242 0c0 8.594-6.965 15.562-15.558 15.562-8.602 0-15.56-6.968-15.56-15.562s6.958-15.563 15.56-15.563c8.593 0 15.558 6.97 15.558 15.563zm0 0"/>
</symbol><symbol id="icon-search" viewBox="0 0 16 16">
    <style>
        .st0{fill:#848484}
    </style>
    <path class="st0" d="M15.8 14.9L12 11c1-1.2 1.5-2.7 1.5-4.3 0-3.7-3-6.7-6.7-6.7C3 0 0 3 0 6.7s3 6.7 6.7 6.7c1.6 0 3.1-.6 4.3-1.5l3.8 3.8c.3.3.7.3.9 0 .4-.2.4-.6.1-.8zm-9.1-2.8c-3 0-5.4-2.4-5.4-5.4s2.4-5.4 5.4-5.4c3 0 5.4 2.4 5.4 5.4s-2.4 5.4-5.4 5.4z"/>
</symbol><symbol id="icon-shopping-cart" viewBox="0 0 485 485">
    <path d="M145 318.4h268.9c29.7 0 53.8-24.2 53.8-53.8V151.3c0-6.6-5.4-12-12-12s-12 5.4-12 12v113.2c0 16.5-13.4 29.8-29.8 29.8H145c-16.5 0-29.8-13.4-29.8-29.8V43.3c0-.4 0-.8-.1-1.3v-.3c0-.3-.1-.6-.1-.8s-.1-.5-.2-.7c0-.1-.1-.3-.1-.4-.1-.3-.2-.5-.3-.7 0-.1-.1-.2-.1-.4-.1-.2-.2-.4-.3-.7-.1-.1-.1-.3-.2-.4-.1-.2-.2-.4-.3-.5-.1-.2-.2-.3-.3-.5-.1-.1-.2-.3-.3-.4-.1-.2-.3-.4-.4-.6-.1-.1-.2-.2-.2-.3-.2-.2-.3-.4-.5-.6-.1-.1-.2-.1-.2-.2l-.6-.6c-.1-.1-.2-.2-.3-.2-.2-.2-.4-.3-.6-.5-.2-.1-.4-.3-.7-.4-.1-.1-.2-.1-.3-.2-.4-.2-.8-.4-1.1-.6L33.9 1c-6.1-2.6-13.1.3-15.7 6.4-2.6 6 .3 13.1 6.4 15.7l66.5 28.1v297.6c0 28.2 21.7 51.3 49.3 53.6-5.6 8.4-8.9 18.5-8.9 29.4 0 29.3 23.9 53.2 53.2 53.2s53.2-23.9 53.2-53.2c0-10.8-3.2-20.8-8.7-29.2h127.3c-5.5 8.4-8.7 18.4-8.7 29.2 0 29.3 23.9 53.2 53.2 53.2s53.2-23.9 53.2-53.2-23.9-53.2-53.2-53.2H145c-16.5 0-29.8-13.4-29.8-29.8v-39.5c8.5 5.7 18.8 9.1 29.8 9.1zm68.9 113.4c0 16.1-13.1 29.2-29.2 29.2s-29.2-13.1-29.2-29.2 13.1-29.2 29.2-29.2 29.2 13.1 29.2 29.2zm216.2 0c0 16.1-13.1 29.2-29.2 29.2s-29.2-13.1-29.2-29.2 13.1-29.2 29.2-29.2 29.2 13.1 29.2 29.2z"/>
    <path d="M181.6 247.3h195.8c6.6 0 12-5.4 12-12V61.9c0-6.6-5.4-12-12-12H181.6c-6.6 0-12 5.4-12 12v173.3c0 6.7 5.3 12.1 12 12.1zm12-158.7l152.1 134.7H193.6V88.6zm171.7 120L213.2 73.9h152.1v134.7z"/>
</symbol><symbol id="icon-snowflake" viewBox="0 0 219 219">
    <path d="M202.314 154.591l-22.323-12.888 19.345-11.407a7.5 7.5 0 1 0-7.619-12.921l-26.648 15.713-40.179-23.198 40.172-23.194 26.656 15.711a7.497 7.497 0 0 0 10.269-2.654 7.501 7.501 0 0 0-2.653-10.27L179.986 78.08l22.328-12.891a7.5 7.5 0 0 0-7.5-12.99l-22.323 12.889-.203-22.461c-.037-4.142-3.435-7.489-7.567-7.432a7.499 7.499 0 0 0-7.432 7.567l.279 30.941L117.391 96.9V50.51l26.937-15.224a7.5 7.5 0 0 0-7.381-13.059L117.391 33.28V7.5a7.5 7.5 0 0 0-15 0v25.78L82.835 22.228a7.5 7.5 0 0 0-7.381 13.059l26.936 15.224V96.9L62.213 73.703l.279-30.941a7.499 7.499 0 0 0-7.432-7.567h-.069a7.5 7.5 0 0 0-7.498 7.433l-.203 22.46-22.323-12.889a7.5 7.5 0 0 0-7.5 12.99L39.794 78.08 20.443 89.485a7.501 7.501 0 0 0 7.617 12.924l26.659-15.711 40.173 23.194-40.18 23.198-26.652-15.716a7.501 7.501 0 0 0-10.27 2.651 7.499 7.499 0 0 0 2.651 10.269l19.348 11.408-22.323 12.888a7.5 7.5 0 0 0 7.5 12.99l22.323-12.889.203 22.462a7.5 7.5 0 0 0 7.498 7.433l.069-.001a7.499 7.499 0 0 0 7.432-7.567l-.279-30.942 40.178-23.197v46.391l-26.936 15.224a7.5 7.5 0 0 0 7.381 13.059l19.556-11.052v25.78a7.5 7.5 0 0 0 15 0v-25.78l19.556 11.052a7.498 7.498 0 0 0 10.22-2.839 7.5 7.5 0 0 0-2.839-10.22l-26.937-15.224v-46.39l40.177 23.196-.286 30.941a7.499 7.499 0 0 0 7.43 7.569l.071.001a7.5 7.5 0 0 0 7.498-7.431l.208-22.465 22.326 12.89a7.499 7.499 0 0 0 10.245-2.745 7.5 7.5 0 0 0-2.746-10.245z"/>
</symbol><symbol id="icon-studded" viewBox="0 0 18 16">
    <path d="M10.218 0l-.545 1.623-.031-.031c.012.012.018.029.027.041l-.002.004.012.012c.128.177.329 1.435.329 1.435L.7 13.224.018 15.21l1.823-.777L12.088 5.11s1.204.202 1.362.311l.046.045 1.696-.493L10.218 0z"/>
</symbol><symbol id="icon-wheel" viewBox="0 0 481 481">
    <path d="M481.264 136.628v-80c-.026-22.08-17.92-39.974-40-40h-240c-22.08.026-39.974 17.92-40 40v72.408C68.627 132.683-3.514 210.736.133 303.373s81.7 164.778 174.337 161.131a167.96 167.96 0 0 0 16.563-1.476 38.649 38.649 0 0 0 10.232 1.6h240c22.08-.026 39.974-17.92 40-40v-80c-.026-22.08-17.92-39.974-40-40h-.208a39.583 39.583 0 0 0 8.208-24v-80a39.583 39.583 0 0 0-8.208-24h.208c22.079-.027 39.972-17.92 39.999-40zm-280-104h240c13.255 0 24 10.745 24 24h-288c0-13.255 10.745-24 24-24zm-24 40h288v16h-288v-16zm0 32h288v16h-288v-16zm54.24 330.528a151.94 151.94 0 0 1-7.512 3.112c-1.152.448-2.328.864-3.504 1.288-78.977 28.34-165.974-12.71-194.314-91.686-28.34-78.977 12.71-165.974 91.686-194.314a151.932 151.932 0 0 1 51.404-8.928c4.8 0 9.472.28 14.128.712 1.488.144 2.952.36 4.432.536 3.2.392 6.336.864 9.456 1.448 1.68.32 3.36.656 5.024 1.024 2.872.648 5.704 1.4 8.52 2.2 1.696.488 3.416.928 5.096 1.48 2.728.88 5.384 1.912 8 2.944a149.75 149.75 0 0 1 12.136 5.344c1.176.584 2.4 1.104 3.544 1.712 2.84 1.496 5.6 3.152 8.368 4.8.912.56 1.832 1.096 2.736 1.664a163.875 163.875 0 0 1 8.192 5.648c.8.576 1.552 1.152 2.32 1.736a180.761 180.761 0 0 1 8.056 6.584c1 .872 1.976 1.776 2.944 2.672a150.52 150.52 0 0 1 6.488 6.288c1.416 1.472 2.768 3.008 4.128 4.544 1.6 1.776 3.2 3.544 4.68 5.392 1.752 2.176 3.384 4.44 5.024 6.712 1.04 1.44 2.136 2.84 3.128 4.312.632.944 1.16 1.96 1.768 2.92 2.4 3.744 4.664 7.584 6.736 11.624.336.656.624 1.336.96 1.992 2.232 4.544 4.312 9.216 6.144 14.064.128.336.248.68.376 1.024 1.704 4.624 3.2 9.344 4.456 14.136l.112.432a153.02 153.02 0 0 1 3.104 15.2v.152c.544 3.616.936 6.96 1.24 10.184.336 4.12.632 8.248.632 12.448a152.88 152.88 0 0 1-.8 15.264c0 .448-.128.896-.176 1.344-.424 3.856-1.04 7.64-1.744 11.4-.312 1.6-.616 3.2-.976 4.8-.608 2.744-1.344 5.44-2.096 8.128a153.041 153.041 0 0 1-3.008 9.448 156.26 156.26 0 0 1-1.408 3.832 150.447 150.447 0 0 1-5.816 13.216c-.32.656-.616 1.328-.944 1.976a153.285 153.285 0 0 1-8.176 14.048l-.056.096c-1.08 1.6-2.248 3.2-3.376 4.8-1.376 1.904-2.768 3.8-4.224 5.6a145.352 145.352 0 0 1-3.576 4.4 154.428 154.428 0 0 1-6.8 7.48c-1.16 1.192-2.4 2.352-3.568 3.512a157.852 157.852 0 0 1-6.704 6.096c-1.448 1.24-2.928 2.4-4.416 3.616-1.992 1.6-4 3.08-6.096 4.56-1.528 1.088-3.048 2.208-4.616 3.248-2.664 1.752-5.416 3.384-8.192 4.976-2.624 1.504-5.304 2.896-8 4.232-1.56.936-3.232 1.768-4.92 2.528zm105.08-151.968v-.032c-.072-.848-.048-1.72-.128-2.56h96.808c0 13.255-10.745 24-24 24h-72.192c.128-2.688.192-5.36.192-8 0-4.296-.256-8.768-.68-13.408zm-2.464-18.56a174.285 174.285 0 0 0-3.928-16h103.072v16H334.12zm-9.6-32a166.273 166.273 0 0 0-7.568-16h116.312v16H324.52zm-17.464-32c-1.264-1.8-2.704-3.464-4-5.216-1.672-2.2-3.296-4.448-5.072-6.568-1.2-1.432-2.52-2.76-3.768-4.144-2.4-2.696-4.8-5.384-7.408-7.92l-.168-.152h122.624c13.255 0 24 10.745 24 24H307.056zm134.208 248H240.608c1.536-.72 3.024-1.552 4.544-2.32 1.76-.896 3.552-1.728 5.272-2.688 3.736-2.056 7.368-4.304 10.944-6.656 1.464-.96 2.88-1.968 4.304-2.968a168.592 168.592 0 0 0 7.856-5.88c1.184-.944 2.4-1.848 3.544-2.816.28-.232.576-.44.848-.672h187.344c0 13.254-10.745 24-24 24zm24-40H294.336c.888-.992 1.712-2.048 2.576-3.064 1.04-1.216 2.088-2.4 3.096-3.672 2.4-3.016 4.8-6.088 6.984-9.264h158.272v16zm0-32H316.96a166.273 166.273 0 0 0 7.568-16h140.736v16zm-24-56.008v.008c13.255 0 24 10.745 24 24H330.192c.232-.8.392-1.6.616-2.4.96-3.376 1.864-6.752 2.616-10.152.384-1.792.672-3.616 1-5.432.368-2.008.8-4 1.112-6.024h105.728zM267.608 160.628c-.352-.256-.728-.472-1.08-.728a168.324 168.324 0 0 0-7.456-5.008c-1.544-.984-3.12-1.92-4.696-2.856-2.352-1.392-4.688-2.8-7.12-4.072a177.162 177.162 0 0 0-11.552-5.6c-1.6-.68-3.2-1.256-4.8-1.888-3.072-1.224-6.168-2.4-9.304-3.416-.424-.136-.8-.32-1.256-.456h244.92c.013 13.255-10.721 24.011-23.976 24.024h-173.68z"/>
    <path d="M290.584 256.172v-.072c-.8-2.352-1.6-4.576-2.488-6.752-.648-1.6-1.328-3.2-2.04-4.8-.112-.248-.2-.488-.304-.728-.272-.6-.6-1.16-.888-1.736-1.424-3.024-2.936-5.992-4.584-8.872-.152-.264-.248-.496-.416-.8-.28-.48-.648-.952-.936-1.44a139.956 139.956 0 0 0-5.416-8.336c-.2-.28-.36-.584-.56-.864-.392-.536-.848-1.016-1.248-1.544a124.886 124.886 0 0 0-6.056-7.544c-.24-.28-.456-.6-.696-.872-.096-.112-.232-.16-.336-.264a127.876 127.876 0 0 0-70.032-40.384c-2.4-.48-4.616-.712-6.896-1.04-1.8-.264-3.568-.64-5.392-.8-.928-.096-1.864-.064-2.792-.136-3.416-.312-6.8-.56-10.24-.56s-6.824.248-10.192.52c-.928.072-1.864 0-2.792.136-1.72.176-3.376.528-5.072.8-2.272.328-4.464.568-6.888 1.048h-.048a127.872 127.872 0 0 0-70.64 40.752c-.08.08-.184.12-.256.2-.184.208-.336.432-.512.64-2.144 2.456-4.168 5.008-6.12 7.624-.368.496-.8.968-1.168 1.464-.184.248-.336.536-.512.8-1.976 2.768-3.808 5.6-5.6 8.552-.304.504-.656.952-.952 1.464-.184.32-.352.664-.536.984-.8 1.344-1.504 2.688-2.224 4.064a138.365 138.365 0 0 0-3.16 6.448c-.08.184-.136.376-.216.56a126.494 126.494 0 0 0-4.128 10.552c-.104.304-.248.592-.352.904v.104a126.323 126.323 0 0 0 0 80.76v.144c.752 2.264 1.6 4.576 2.576 6.928.632 1.6 1.288 3.136 1.984 4.68.112.248.192.48.304.728.192.408.448.8.64 1.232 1.52 3.2 3.136 6.4 4.904 9.496.128.216.216.432.344.656.28.48.64.944.92 1.424 1.728 2.872 3.528 5.68 5.464 8.4.192.264.336.544.528.8.368.504.8.968 1.176 1.464 1.952 2.616 4 5.16 6.104 7.616.256.288.464.608.72.896.104.112.24.16.344.272a127.897 127.897 0 0 0 70.024 40.368c2.4.48 4.616.712 6.896 1.04 1.8.264 3.568.64 5.392.8 4.304.432 8.672.656 12.984.656s8.68-.224 12.976-.656l.288-.04c3.92-.4 7.848-.992 12.352-1.88a127.813 127.813 0 0 0 69.8-40.312c.104-.104.24-.152.344-.264.256-.288.464-.608.712-.896 2.152-2.464 4.176-5.016 6.128-7.64.368-.496.8-.952 1.168-1.456.184-.248.336-.536.512-.8 1.968-2.752 3.784-5.6 5.528-8.504.312-.512.672-.976.976-1.496.136-.24.248-.496.384-.736 1.296-2.264 2.48-4.592 3.64-6.936.632-1.2 1.256-2.4 1.904-3.84.088-.192.136-.376.224-.56 1.48-3.328 2.792-6.736 4-10.2.144-.424.36-.856.496-1.272v-.144a126.275 126.275 0 0 0-.048-80.8zm-89.32-66.824a111.876 111.876 0 0 1 44.8 25.984l-44.8 25.872v-51.856zm-64 0v51.856l-44.8-25.872a111.846 111.846 0 0 1 44.8-25.984zM60.408 322.532a108.253 108.253 0 0 1 0-51.8l44.856 25.896-44.856 25.904zm76.856 81.376a111.864 111.864 0 0 1-44.8-25.984l44.8-25.872v51.856zm64 0v-51.856l44.8 25.872a111.876 111.876 0 0 1-44.8 25.984zm71.856-65.544a125.98 125.98 0 0 1-1.728 4c-.208.464-.448.904-.664 1.36a85.227 85.227 0 0 1-1.912 3.752l-1.648 3.2c-.24.512-.544 1.072-.864 1.656-.32.584-.608.992-.912 1.496-1.544 2.6-3.2 5.184-5.008 7.712a112.778 112.778 0 0 1-3.24 4.328l-59.88-34.6a8 8 0 0 0-12 6.96v69.12c-1.456.216-2.88.52-4.36.672h-.264c-7.568.76-15.192.76-22.76 0h-.232c-1.48-.152-2.92-.456-4.384-.672v-69.12a8 8 0 0 0-12-6.928l-59.88 34.576c-1.088-1.376-2.136-2.792-3.2-4.224-1.864-2.6-3.6-5.296-5.272-8.112-.256-.432-.528-.8-.8-1.272-1.6-2.752-3.032-5.6-4.448-8.64-.248-.528-.528-1.04-.8-1.6a189.974 189.974 0 0 1-1.552-3.64l-.08-.224 60.032-34.608a8 8 0 0 0 0-13.856l-59.928-34.6v-.056c.536-1.344 1.12-2.696 1.728-4.064.232-.504.488-1 .728-1.504 1.328-2.84 2.776-5.68 4.424-8.56.288-.496.6-.968.888-1.456 1.6-2.616 3.2-5.208 5.04-7.744a122.077 122.077 0 0 1 3.2-4.296l59.92 34.568a8 8 0 0 0 12-6.96v-69.12c1.448-.208 2.872-.512 4.344-.664l.28-.04c7.568-.76 15.192-.76 22.76 0h.232c1.48.152 2.92.456 4.384.672v69.152a8 8 0 0 0 12 6.928l59.888-34.568a151.534 151.534 0 0 1 3.152 4.216c1.856 2.584 3.592 5.288 5.264 8.104.264.448.552.88.8 1.328s.544 1.016.8 1.536l1.6 3.144c.376.696.752 1.4 1.136 2.136.536 1.104 1.104 2.2 1.6 3.328a77.472 77.472 0 0 1 1.6 3.856l-59.84 34.664a8 8 0 0 0 0 13.856l37.24 21.504 22.688 13.096-.072.208zm5-15.84l-44.856-25.896 44.856-25.896a108.22 108.22 0 0 1 0 51.792z"/>
    <path d="M169.264 272.628c-13.255 0-24 10.745-24 24s10.745 24 24 24 24-10.745 24-24-10.745-24-24-24zm0 32a8 8 0 1 1 0-16 8 8 0 0 1 0 16z"/>
</symbol></svg>