<?xml version="1.0" encoding="utf-8"?>
<!-- Generator: Adobe Illustrator 23.0.3, SVG Export Plug-In . SVG Version: 6.00 Build 0)  -->
<svg version="1.1" id="Capa_1" xmlns="http://www.w3.org/2000/svg" xmlns:xlink="http://www.w3.org/1999/xlink" x="0px" y="0px"
	 width="384.4px" height="490px" viewBox="0 0 384.4 490" style="enable-background:new 0 0 384.4 490;" xml:space="preserve">
<g>
	<g>
		<g>
			<path d="M327.2,201.1h-14.4v-80.5C312.8,54.1,258.7,0,192.2,0S71.6,54.1,71.6,120.6v80.5H57.2C25.7,201.1,0,226.7,0,258.3v174.5
				C0,464.3,25.6,490,57.2,490h270c31.5,0,57.2-25.6,57.2-57.2V258.3C384.3,226.7,358.7,201.1,327.2,201.1z M105.9,120.6
				c0-47.6,38.7-86.3,86.3-86.3s86.3,38.7,86.3,86.3v80.5H105.9V120.6z M350,432.7c0,12.6-10.3,22.9-22.9,22.9H57.2
				c-12.6,0-22.9-10.3-22.9-22.9V258.3c0-12.6,10.3-22.9,22.9-22.9h270c12.6,0,22.9,10.3,22.9,22.9v174.4L350,432.7L350,432.7z"/>
			<path d="M192.2,307.2c-9.5,0-17.1,7.7-17.1,17.2v44.3c0,9.5,7.7,17.1,17.1,17.1c9.5,0,17.2-7.7,17.2-17.1v-44.3
				C209.3,314.9,201.7,307.2,192.2,307.2z"/>
		</g>
	</g>
</g>
</svg>
