<?xml version="1.0" encoding="utf-8"?>
<!-- Generator: Adobe Illustrator 23.0.1, SVG Export Plug-In . SVG Version: 6.00 Build 0)  -->
<svg version="1.1" id="Capa_1" xmlns="http://www.w3.org/2000/svg" xmlns:xlink="http://www.w3.org/1999/xlink" x="0px" y="0px"
	 viewBox="0 0 512 366.9" style="enable-background:new 0 0 512 366.9;" xml:space="preserve">
<style type="text/css">
	.st0{fill:#247283;}
</style>
<g>
	<g>
		<path class="st0" d="M119.5,264.5c-28.2,0-51.2,23-51.2,51.2s23,51.2,51.2,51.2s51.2-23,51.2-51.2
			C170.7,287.5,147.7,264.5,119.5,264.5z M119.5,349.9c-18.8,0-34.1-15.3-34.1-34.1c0-18.8,15.3-34.1,34.1-34.1s34.1,15.3,34.1,34.1
			C153.6,334.6,138.3,349.9,119.5,349.9z"/>
	</g>
</g>
<g>
	<g>
		<path class="st0" d="M409.6,264.5c-28.2,0-51.2,23-51.2,51.2s23,51.2,51.2,51.2s51.2-23,51.2-51.2
			C460.8,287.5,437.8,264.5,409.6,264.5z M409.6,349.9c-18.8,0-34.1-15.3-34.1-34.1c0-18.8,15.3-34.1,34.1-34.1
			c18.8,0,34.1,15.3,34.1,34.1S428.4,349.9,409.6,349.9z"/>
	</g>
</g>
<g>
	<g>
		<path class="st0" d="M510.6,217.3L433.8,97.8c-1.6-2.4-4.3-3.9-7.2-3.9h-93.9c-4.7,0-8.5,3.8-8.5,8.5v213.3c0,4.7,3.8,8.5,8.5,8.5
			h34.1v-17.1h-25.6V110.9H422l72.9,113.4v82.8h-42.7v17.1h51.2c4.7,0,8.5-3.8,8.5-8.5v-93.9C512,220.2,511.5,218.6,510.6,217.3z"/>
	</g>
</g>
<g>
	<g>
		<path class="st0" d="M375.5,204.8v-59.7h68.3V128h-76.8c-4.7,0-8.5,3.8-8.5,8.5v76.8c0,4.7,3.8,8.5,8.5,8.5h128v-17.1L375.5,204.8
			L375.5,204.8z"/>
	</g>
</g>
<g>
	<g>
		<path class="st0" d="M332.8,34.1H8.5C3.8,34.1,0,38,0,42.7v273.1c0,4.7,3.8,8.5,8.5,8.5h68.3v-17.1H17.1v-256h307.2v256H162.1
			v17.1h170.7c4.7,0,8.5-3.8,8.5-8.5V42.7C341.3,38,337.5,34.1,332.8,34.1z"/>
	</g>
</g>
<g>
	<g>
		<rect x="8.5" y="273.1" class="st0" width="51.2" height="17.1"/>
	</g>
</g>
<g>
	<g>
		<rect x="179.2" y="273.1" class="st0" width="145.1" height="17.1"/>
	</g>
</g>
<g>
	<g>
		<rect x="469.3" y="273.1" class="st0" width="34.1" height="17.1"/>
	</g>
</g>
<g>
	<g>
		<rect x="34.1" y="68.3" class="st0" width="298.7" height="17.1"/>
	</g>
</g>
<g>
	<g>
		<rect x="110.9" y="307.2" class="st0" width="17.1" height="17.1"/>
	</g>
</g>
<g>
	<g>
		<rect x="401.1" y="307.2" class="st0" width="17.1" height="17.1"/>
	</g>
</g>
<g>
	<g>
		<rect x="34.1" class="st0" width="119.5" height="17.1"/>
	</g>
</g>
<g>
	<g>
		<rect class="st0" width="17.1" height="17.1"/>
	</g>
</g>
</svg>
